<svg width="41" height="40" viewBox="0 0 41 40" fill="none" xmlns="http://www.w3.org/2000/svg">
<g id="icons-scenes-morning-outline 1">
<g id="Symbols">
<path id="Combined-Shape" d="M19.7289 31.6169C20.2846 31.6169 20.7576 31.9994 20.8861 32.5332L20.911 32.6697L20.9191 32.8071V35.9586C20.9191 36.5145 20.537 36.9873 20.003 37.1158L19.8664 37.1406L19.7173 37.1484L19.5798 37.1395C19.0945 37.0789 18.7003 36.727 18.5771 36.2538L18.5485 36.1083L18.5388 35.9586V32.8071C18.5388 32.1496 19.0714 31.6169 19.7289 31.6169ZM9.81845 28.2098C10.2836 27.7446 11.0363 27.7446 11.5015 28.2098C11.8854 28.5938 11.956 29.1802 11.6891 29.6463L11.608 29.7703L11.5015 29.8928L9.27351 32.1208C9.1304 32.2639 8.95518 32.3668 8.7566 32.4232L8.60343 32.4566L8.41736 32.4689L8.246 32.4549C7.99844 32.4158 7.76938 32.2997 7.59049 32.1208C7.20654 31.7368 7.13596 31.1504 7.40282 30.6842L7.48399 30.5603L7.59049 30.4378L9.81845 28.2098ZM27.9572 28.2098C28.338 27.829 28.9179 27.7564 29.3741 28.0091L29.5176 28.1033L29.6402 28.2098L31.8682 30.4378C32.3333 30.9029 32.3333 31.6556 31.8682 32.1208C31.7251 32.2639 31.5498 32.3668 31.3512 32.4232L31.1981 32.4566L31.012 32.4689L30.8406 32.4549C30.6928 32.4316 30.5512 32.3807 30.4189 32.3018L30.2899 32.2135L30.1851 32.1208L27.9572 29.8928C27.492 29.4277 27.492 28.675 27.9572 28.2098ZM19.7289 11.5145C24.3976 11.5145 28.196 15.313 28.196 19.9816C28.196 24.6502 24.3976 28.4486 19.7289 28.4486C15.0603 28.4486 11.2619 24.6502 11.2619 19.9816C11.2619 15.313 15.0603 11.5145 19.7289 11.5145ZM19.7289 13.7316C16.2826 13.7316 13.4789 16.5352 13.4789 19.9816C13.4789 23.4279 16.2826 26.2316 19.7289 26.2316C23.1753 26.2316 25.979 23.4279 25.979 19.9816C25.979 16.5352 23.1753 13.7316 19.7289 13.7316ZM35.7059 18.7914C36.3637 18.7914 36.8961 19.3237 36.8961 19.9816C36.8961 20.5375 36.5139 21.0103 35.9799 21.1388L35.8434 21.1636L35.7059 21.1718H32.5544C31.897 21.1718 31.3642 20.6391 31.3642 19.9816C31.3642 19.4259 31.7467 18.953 32.2805 18.8244L32.417 18.7995L32.5544 18.7914H35.7059ZM6.90307 18.7914C7.56093 18.7914 8.09326 19.3237 8.09326 19.9816C8.09326 20.5375 7.71108 21.0103 7.17708 21.1388L7.04055 21.1636L6.90307 21.1718H3.75231C3.09489 21.1718 2.56213 20.6391 2.56213 19.9816C2.56213 19.4259 2.94461 18.953 3.47844 18.8244L3.61492 18.7995L3.75231 18.7914H6.90307ZM30.1851 7.84311C30.6503 7.37796 31.403 7.37796 31.8682 7.84311C32.2521 8.22706 32.3227 8.81352 32.0558 9.27966L31.9747 9.40357L31.8682 9.52613L29.6402 11.7541C29.4971 11.8972 29.3219 12.0002 29.1233 12.0565L28.9701 12.0899L28.7841 12.1022L28.6127 12.0882C28.3651 12.0491 28.1361 11.933 27.9572 11.7541C27.5732 11.3701 27.5026 10.7837 27.7695 10.3175L27.8507 10.1936L27.9572 10.0711L30.1851 7.84311ZM7.59049 7.84311C7.97127 7.46233 8.55122 7.38976 9.00736 7.64241L9.14017 7.72797L9.27351 7.84311L11.5015 10.0711C11.9666 10.5362 11.9666 11.2889 11.5015 11.7541C11.3584 11.8972 11.1831 12.0002 10.9846 12.0565L10.8314 12.0899L10.6453 12.1022L10.474 12.0882C10.3261 12.0649 10.1845 12.014 10.0522 11.9351L9.92319 11.8468L9.81845 11.7541L7.59049 9.52613C7.12534 9.06098 7.12534 8.30827 7.59049 7.84311ZM19.7289 2.81482C20.2846 2.81482 20.7576 3.1973 20.8861 3.73114L20.911 3.86761L20.9191 4.00501V7.15576C20.9191 7.71172 20.537 8.18447 20.003 8.31298L19.8664 8.33779L19.7173 8.34559L19.5798 8.3367C19.0945 8.27607 18.7003 7.92421 18.5771 7.45096L18.5485 7.30551L18.5388 7.15576V4.00501C18.5388 3.34758 19.0714 2.81482 19.7289 2.81482Z" fill="#202020"/>
</g>
</g>
</svg>
