<svg width="32" height="32" viewBox="0 0 32 32" fill="none" xmlns="http://www.w3.org/2000/svg">
<g id="Group 1">
<path id="Vector" d="M28.4805 13.3443C28.4805 13.3443 28.4824 13.3462 28.4837 13.3469L28.5746 13.4141C28.5746 13.4141 28.5772 13.416 28.5784 13.4166C28.7135 13.5024 28.869 13.5478 29.0271 13.5478C29.3074 13.5478 29.5736 13.4038 29.74 13.1619C30.0255 12.7491 29.9512 12.1552 29.5743 11.839L15.7541 0.201903C15.7541 0.201903 15.7516 0.199983 15.7503 0.198703L15.6466 0.124463C15.6466 0.124463 15.644 0.122543 15.6428 0.121903C15.5103 0.0412634 15.3592 -0.000976562 15.2069 -0.000976562C15.0098 -0.000976562 14.8152 0.0707034 14.6604 0.201903L0.838911 11.8384C0.838911 11.8384 0.836351 11.8403 0.835711 11.8416L0.746111 11.9293C0.746111 11.9293 0.744191 11.9312 0.742911 11.9325C0.444031 12.2697 0.415231 12.7869 0.674431 13.1619C0.675071 13.1632 0.676351 13.1638 0.676991 13.1651L0.751231 13.2585C0.751231 13.2585 0.755071 13.263 0.756991 13.2649L0.848511 13.352C0.848511 13.352 0.851071 13.3539 0.851711 13.3552C1.00467 13.4793 1.19475 13.5478 1.38739 13.5478C1.58003 13.5478 1.77587 13.4774 1.93331 13.3443L15.2063 2.16862L28.4812 13.3437L28.4805 13.3443Z" fill="black"/>
<path id="Vector_2" d="M31.1384 18.015C30.9509 17.855 30.7115 17.7667 30.4639 17.7667C30.3493 17.7667 30.236 17.7853 30.1279 17.8224C30.1151 17.8269 28.8146 18.2627 27.0098 18.2627C26.9592 18.2627 26.908 18.2627 26.8568 18.2614C26.8338 18.2614 26.8107 18.2602 26.7877 18.2595V13.1728C26.7877 13.1728 26.7877 13.1702 26.7877 13.169L26.78 13.0499C26.78 13.0499 26.78 13.0474 26.78 13.0461C26.7211 12.5802 26.3423 12.2288 25.8994 12.2288C25.8981 12.2288 25.8962 12.2288 25.8949 12.2288L25.7816 12.2371C25.7816 12.2371 25.7759 12.2371 25.7727 12.2384L25.6645 12.2621C25.6645 12.2621 25.6619 12.2627 25.66 12.2634C25.2773 12.376 25.0098 12.7504 25.0098 13.1734V18.0714C24.8927 18.0483 24.7762 18.024 24.661 17.9965C24.2565 17.9005 23.8636 17.7795 23.493 17.6368C21.8879 17.0173 20.1426 16.6755 18.5791 16.6755C17.2383 16.6755 16.044 16.9181 15.0303 17.3961C14.6559 17.5728 14.3026 17.7833 13.9813 18.0227C13.6946 18.2358 13.4175 18.4874 13.1557 18.7696C11.6767 20.367 11.0181 22.8086 11.1979 26.0272C10.7749 26.3555 10.3736 26.7024 9.99347 27.0646H5.58771C5.51987 27.0646 5.46483 27.0096 5.46483 26.9418V13.4832C5.46483 13.4832 5.46483 13.4806 5.46483 13.4794L5.45715 13.3603C5.45715 13.3603 5.45715 13.3578 5.45715 13.3565C5.39827 12.8906 5.01939 12.5392 4.57651 12.5392C4.08627 12.5392 3.68755 12.9629 3.68755 13.4838V27.1568L3.69523 27.3264C3.77779 28.2557 4.49459 28.9545 5.36307 28.9545H8.32627C7.97171 29.4345 7.64787 29.935 7.35603 30.456C7.07635 30.9552 7.25491 31.5888 7.75411 31.8685C7.84435 31.919 7.94035 31.9555 8.04019 31.9773C8.11251 31.9933 8.18611 32.0009 8.26035 32.0009C8.63603 32.0009 8.98291 31.7974 9.16659 31.4704C9.98643 30.0067 11.1199 28.7171 12.5362 27.6368C13.3215 27.0377 14.1983 26.4995 15.1435 26.0368C17.9499 24.6614 20.4549 24.376 20.4799 24.3734C21.0482 24.3133 21.4623 23.8019 21.4027 23.2336C21.3471 22.7037 20.9042 22.3037 20.3717 22.3037C20.3359 22.3037 20.2987 22.3056 20.2629 22.3094C20.0472 22.3318 18.0837 22.5584 15.6133 23.5401C14.7858 23.8691 13.9909 24.248 13.2491 24.6678C13.2517 24.5834 13.2549 24.4912 13.2594 24.3869C13.3138 23.1875 13.532 22.1661 13.909 21.3507C14.2296 20.6576 14.6706 20.0982 15.2203 19.6893C15.429 19.5338 15.6651 19.3936 15.9224 19.2726C16.6552 18.9283 17.5448 18.7536 18.5675 18.7536C19.8699 18.7536 21.3925 19.0531 22.7455 19.5747C23.2127 19.7552 23.7074 19.9069 24.2162 20.0265C24.9291 20.1936 25.6735 20.296 26.4287 20.3305C26.6251 20.3395 26.8261 20.344 27.0245 20.344C27.7067 20.344 28.3928 20.2915 29.0648 20.1878C28.5061 22.1494 27.2184 25.656 24.7372 27.8057C24.2316 28.2442 23.6959 28.6083 23.1455 28.8893C22.8383 29.0461 22.5074 29.1837 22.1624 29.2976C21.4347 29.5382 20.6539 29.6598 19.8424 29.6598C18.2578 29.6598 16.5035 29.1971 14.6283 28.2851C14.6226 28.2825 14.6168 28.28 14.6111 28.2768C14.6059 28.2749 14.6015 28.2723 14.5963 28.2698C14.453 28.2 14.3 28.1641 14.1419 28.1641C13.7419 28.1641 13.3842 28.3875 13.2088 28.7465C12.9579 29.2605 13.1717 29.8832 13.6856 30.1341C13.8347 30.207 13.9909 30.2806 14.149 30.3529C15.2664 30.8649 16.3621 31.2393 17.4059 31.4672C18.2411 31.6489 19.0623 31.7418 19.8482 31.7418C20.4888 31.7418 21.1205 31.6803 21.7259 31.5593C22.5439 31.3961 23.3387 31.119 24.0882 30.7363C24.1125 30.7241 24.1362 30.7113 24.1599 30.6985C24.1739 30.6909 24.188 30.6832 24.2021 30.6761C29.9154 27.6605 31.4258 19.336 31.4872 18.9827C31.5493 18.6243 31.4155 18.2537 31.1378 18.0163L31.1384 18.015Z" fill="black"/>
</g>
</svg>
