<svg width="24" height="26" viewBox="0 0 24 26" fill="none" xmlns="http://www.w3.org/2000/svg">
<g id="Icons-/-Home-Automation-/-Device-Panel-/-Switch-/-Turn-Off-Light-Theme">
<path id="Combined-Shape" fill-rule="evenodd" clip-rule="evenodd" d="M6.048 5.93308C5.63204 5.46988 4.90919 5.42272 4.43341 5.82776C1.93361 7.95601 0.5 11.0296 0.5 14.2605C0.5 20.4346 5.65923 25.4583 11.9999 25.4583C18.3407 25.4583 23.5 20.4346 23.5 14.2604C23.5 11.0613 22.0896 8.00749 19.6307 5.88259C19.1579 5.47413 18.4347 5.5161 18.0153 5.97632C17.5959 6.43667 17.639 7.14084 18.1117 7.54928C20.0818 9.25182 21.2116 11.6977 21.2116 14.2605C21.2116 19.2068 17.0798 23.23 12.0001 23.23C6.92034 23.23 2.78854 19.2068 2.78854 14.2605C2.78854 11.6726 3.93722 9.21032 5.93983 7.50524C6.41552 7.1002 6.46395 6.39625 6.048 5.93308ZM11.9999 0.541672C11.3933 0.541672 10.8969 1.00142 10.8582 1.58258L10.8557 1.65583V10.0589C10.8557 10.6742 11.368 11.1731 11.9999 11.1731C12.6066 11.1731 13.103 10.7133 13.1417 10.1322L13.1442 10.0589V1.65583C13.1442 1.04053 12.6318 0.541672 11.9999 0.541672Z" fill="url(#paint0_linear_283_1589)"/>
</g>
<defs>
<linearGradient id="paint0_linear_283_1589" x1="1150.5" y1="2492.21" x2="1150.5" y2="0.541672" gradientUnits="userSpaceOnUse">
<stop stop-color="#2E2E2E"/>
<stop offset="1" stop-color="#2E2E2E"/>
</linearGradient>
</defs>
</svg>
